<svg width="140" height="22" viewBox="0 0 140 22" fill="none" xmlns="http://www.w3.org/2000/svg">
<path d="M138 17.5L135 19.5H134.5L135 17.5H138Z" fill="#C4C4C4"/>
<path d="M136.5 18L135 18.5M135 19.5L138 17.5H135L134.5 19.5H135Z" stroke="#F91E1E"/>
<path d="M47 18.5H134.776" stroke="#F91E1E" stroke-width="3"/>
<path d="M44 1.5L38.5 10L43.5 19H44H47L41.5 10L47 1H44V1.5Z" fill="#C4C4C4"/>
<path d="M39 10L44 18.5M38.5 10L44 1.5V1H47L41.5 10L47 19H44H43.5L38.5 10ZM39.5 10L45 1.5H46H46.5L45.5 2L40.5 10L45.5 18.5H46L45.5 17.5L45 18.5H44.5L39.5 10Z" stroke="#F91E1E"/>
<path d="M36.5 1.5V3.5" stroke="white"/>
<path d="M3.5 19L19.5 1H20.5L4.5 19H3H5.5L22 0.5H22.5H23L7 19H6L12.5 12" stroke="white"/>
<path d="M20 4.40541V19H20.9697V3.43243H21.9394V19H22.4242V1.97297H22.9091V19H23.8788L33.2525 4.89189M34.2222 3.43243L35.5152 1.48649H34.5455L23.8788 18.027V17.0541L34.0606 1.48649H33.0909L23.3939 16.0811V14.6216L32.6061 1L36 2.94595V19H35.0303V3.43243H34.2222ZM34.2222 3.43243L33.2525 4.89189M34.0606 19V4.89189H33.2525M33.0909 19V6.35135" stroke="white"/>
<path d="M19 0.5L2 19.5H7L23.5 0.5H19Z" stroke="white"/>
<path d="M23.5 0.5V19.5H19.5V5.5" stroke="white"/>
<path d="M19.5 19.5L32.5 0.5H37L24.5 19.5H23.5" stroke="white"/>
<path d="M37 0.5V19.5H33V7" stroke="white"/>
<path d="M43.5 0.5L37.5 10L43.5 19.5H48L42.5 10L48 0.5H43.5Z" stroke="#F91E1E"/>
<path d="M59.755 10.078V14.872L57.29 18H53.159C52.2297 18 51.765 16.1583 51.765 12.475C51.765 8.79167 52.2297 6.95 53.159 6.95H57.29L59.755 10.078ZM56.746 16.691L58.412 14.311V10.554L56.763 8.259H53.839C53.363 8.259 53.125 9.66433 53.125 12.475C53.125 15.2857 53.363 16.691 53.839 16.691H56.746ZM68.1327 15.263C68.5633 15.263 68.705 15.6937 68.5577 16.555L66.7727 18.17H64.1037L62.2507 17.048L61.2137 15.042V12.492L62.2167 10.469L64.0357 9.33H67.0617L68.9147 11.795C68.8467 13.3363 67.7757 14.107 65.7017 14.107C63.6163 14.107 62.6133 14.5207 62.6927 15.348L64.1547 16.861H66.9937C67.311 15.7957 67.6907 15.263 68.1327 15.263ZM64.1547 10.639L62.9137 11.829C62.7437 12.5317 63.452 12.883 65.0387 12.883C66.6253 12.883 67.396 12.5203 67.3507 11.795L66.1777 10.639H64.1547ZM77.6664 9.5C77.8024 9.5 77.859 9.653 77.8364 9.959C77.8137 10.265 77.7287 10.673 77.5814 11.183C77.4454 11.6817 77.264 12.237 77.0374 12.849C76.822 13.4497 76.584 14.056 76.3234 14.668C76.074 15.2687 75.819 15.824 75.5584 16.334C75.309 16.8327 75.0767 17.235 74.8614 17.541C74.6574 17.847 74.493 18 74.3684 18C74.2437 18 74.0737 17.847 73.8584 17.541C73.6544 17.235 73.422 16.8327 73.1614 16.334C72.912 15.824 72.657 15.2687 72.3964 14.668C72.147 14.056 71.909 13.4497 71.6824 12.849C71.467 12.237 71.2914 11.6817 71.1554 11.183C71.0194 10.673 70.94 10.265 70.9174 9.959C70.8947 9.653 70.9514 9.5 71.0874 9.5C71.5747 9.5 72.2434 10.639 73.0934 12.917C73.932 15.195 74.782 15.195 75.6434 12.917C76.4934 10.639 77.1677 9.5 77.6664 9.5ZM86.826 15.263C87.2567 15.263 87.3984 15.6937 87.251 16.555L85.466 18.17H82.797L80.944 17.048L79.907 15.042V12.492L80.91 10.469L82.729 9.33H85.755L87.608 11.795C87.54 13.3363 86.469 14.107 84.395 14.107C82.3097 14.107 81.3067 14.5207 81.386 15.348L82.848 16.861H85.687C86.0044 15.7957 86.384 15.263 86.826 15.263ZM82.848 10.639L81.607 11.829C81.437 12.5317 82.1454 12.883 83.732 12.883C85.3187 12.883 86.0894 12.5203 86.044 11.795L84.871 10.639H82.848ZM95.6797 16.725C96.2804 16.725 96.5807 16.9347 96.5807 17.354C96.5807 17.7847 96.2804 18 95.6797 18H93.4187L91.8717 16.572V11.234C91.8717 8.66133 91.4751 7.375 90.6817 7.375C89.8771 7.375 89.4747 7.15967 89.4747 6.729C89.4747 6.30967 89.8771 6.1 90.6817 6.1H92.5517C93.0051 6.1 93.2317 7.60167 93.2317 10.605V16.011L94.0477 16.742C94.2857 16.7307 94.5407 16.725 94.8127 16.725C95.0847 16.725 95.3737 16.725 95.6797 16.725ZM101.303 18.17L99.5694 17.099L98.6004 15.11V12.424L99.5694 10.418L101.303 9.33H103.53L105.247 10.418L106.216 12.424V15.11L105.264 17.099L103.547 18.17H101.303ZM103.53 16.861L104.856 15.229V12.305L103.53 10.639H101.32L99.9604 12.305V15.229L101.303 16.861H103.53ZM113.251 9.33L114.73 10.452L115.563 12.458V15.008L114.713 17.031L113.149 18.17H110.038C109.687 16.4813 109.511 16.589 109.511 18.493C109.511 20.431 109.284 21.4 108.831 21.4C108.378 21.4 108.151 19.4167 108.151 15.45C108.151 11.4833 108.372 9.5 108.814 9.5C109.245 9.5 109.46 9.56233 109.46 9.687L109.511 10.69V11.727C109.511 11.9083 109.534 11.9423 109.579 11.829C109.624 11.7043 109.692 11.438 109.783 11.03L111.143 9.33H113.251ZM113.115 16.844L114.203 15.178V12.339L113.03 10.639H110.786L109.511 12.39V15.161L110.786 16.844H113.115ZM124.213 15.263C124.643 15.263 124.785 15.6937 124.638 16.555L122.853 18.17H120.184L118.331 17.048L117.294 15.042V12.492L118.297 10.469L120.116 9.33H123.142L124.995 11.795C124.927 13.3363 123.856 14.107 121.782 14.107C119.696 14.107 118.693 14.5207 118.773 15.348L120.235 16.861H123.074C123.391 15.7957 123.771 15.263 124.213 15.263ZM120.235 10.639L118.994 11.829C118.824 12.5317 119.532 12.883 121.119 12.883C122.705 12.883 123.476 12.5203 123.431 11.795L122.258 10.639H120.235ZM131.859 10.724L130.142 11.829C129.972 12.271 129.887 13.1947 129.887 14.6C129.887 16.0167 130.38 16.725 131.366 16.725C132.341 16.725 132.828 16.9347 132.828 17.354C132.828 17.7847 131.831 18 129.836 18C127.842 18 126.844 17.7847 126.844 17.354C126.844 16.9347 127.128 16.725 127.694 16.725C128.25 16.725 128.527 15.518 128.527 13.104C128.527 10.7013 128.754 9.5 129.207 9.5C129.661 9.5 129.887 9.86833 129.887 10.605C129.887 10.9677 129.91 11.1717 129.955 11.217C130.012 11.251 130.086 11.1207 130.176 10.826L131.927 9.33C133.083 9.33 133.661 9.56233 133.661 10.027C133.661 10.4917 133.061 10.724 131.859 10.724Z" fill="white"/>
</svg>
